<?xml version="1.0" encoding="utf-8"?>
<!-- Generator: Adobe Illustrator 21.0.0, SVG Export Plug-In . SVG Version: 6.00 Build 0)  -->
<svg version="1.1" id="图层_1" xmlns="http://www.w3.org/2000/svg" xmlns:xlink="http://www.w3.org/1999/xlink" x="0px" y="0px"
	 viewBox="40 0 412 592" style="enable-background:new 0 0 612 792;" xml:space="preserve">
<style type="text/css">
	.st0{fill:#CCCCCC;}
</style>
<g>
	<polygon class="st0" points="250.6,323.5 213.3,424.6 288.8,424.6 251.9,323.5 	"/>
	<path class="st0" d="M447.3,170.6H156.6c-45.5,0-82.7,37.2-82.7,82.7v290.7c0,45.5,37.2,82.7,82.7,82.7h290.7
		c45.5,0,82.7-37.2,82.7-82.7V253.3C529.9,207.8,492.7,170.6,447.3,170.6z M320.1,510.4l-21-57.6H203l-21,57.6h-36.3l86.1-223.6
		h38.8l86.1,223.6H320.1z M438.2,510.4h-33.8V286.8h33.8V510.4z"/>
</g>
</svg>
