<?xml version="1.0" encoding="utf-8"?>
<!-- Generator: Adobe Illustrator 24.1.3, SVG Export Plug-In . SVG Version: 6.00 Build 0)  -->
<svg version="1.1" id="图层_1" xmlns="http://www.w3.org/2000/svg" xmlns:xlink="http://www.w3.org/1999/xlink" x="0px" y="0px"
	 viewBox="0 0 128 100" enable-background="new 0 0 128 100" xml:space="preserve">
<path d="M34,48.5c-0.8,0-1.6-0.4-2.1-1.1l-20-31c-0.7-1.2-0.4-2.7,0.7-3.5c1.2-0.7,2.7-0.4,3.5,0.7l20,31c0.7,1.2,0.4,2.7-0.7,3.5
	C34.9,48.4,34.5,48.5,34,48.5z"/>
<path d="M94.9,49.7c-0.5,0-0.9-0.1-1.4-0.4c-1.2-0.7-1.5-2.3-0.7-3.5l20-31c0.7-1.2,2.3-1.5,3.5-0.7c1.2,0.7,1.5,2.3,0.7,3.5l-20,31
	C96.5,49.3,95.7,49.7,94.9,49.7z"/>
<path d="M128,101.5c0-0.6,0-1.1,0-1.7c0-33-28.8-59.8-64.3-59.8S-0.5,66.8-0.5,99.8c0,0.6,0,1.1,0,1.7H128z M83,67c3.3,0,6,2.7,6,6
	s-2.7,6-6,6s-6-2.7-6-6S79.7,67,83,67z M44,67c3.3,0,6,2.7,6,6s-2.7,6-6,6s-6-2.7-6-6S40.7,67,44,67z"/>
<g>
</g>
<g>
</g>
<g>
</g>
<g>
</g>
<g>
</g>
<g>
</g>
<g>
</g>
<g>
</g>
<g>
</g>
<g>
</g>
<g>
</g>
</svg>
