<svg xmlns="http://www.w3.org/2000/svg" viewBox="0 0 128 100"><path d="M34 48.5c-.8 0-1.6-.4-2.1-1.1l-20-31c-.7-1.2-.4-2.7.7-3.5 1.2-.7 2.7-.4 3.5.7l20 31c.7 1.2.4 2.7-.7 3.5-.5.3-.9.4-1.4.4zM94.9 49.7c-.5 0-.9-.1-1.4-.4-1.2-.7-1.5-2.3-.7-3.5l20-31c.7-1.2 2.3-1.5 3.5-.7 1.2.7 1.5 2.3.7 3.5l-20 31c-.5.7-1.3 1.1-2.1 1.1z"/><path d="M128 101.5v-1.7c0-33-28.8-59.8-64.3-59.8S-.5 66.8-.5 99.8v1.7H128zM83 67c3.3 0 6 2.7 6 6s-2.7 6-6 6-6-2.7-6-6 2.7-6 6-6zm-39 0c3.3 0 6 2.7 6 6s-2.7 6-6 6-6-2.7-6-6 2.7-6 6-6z"/></svg>