<?xml version="1.0" encoding="utf-8"?>
<!-- Generator: Adobe Illustrator 21.0.0, SVG Export Plug-In . SVG Version: 6.00 Build 0)  -->
<svg version="1.1" id="图层_1" xmlns="http://www.w3.org/2000/svg" xmlns:xlink="http://www.w3.org/1999/xlink" x="0px" y="0px"
	 viewBox="40 0 412 592" style="enable-background:new 0 0 612 792;" xml:space="preserve">
<g>
	<path d="M540.4,230.6H80.6C59.4,230.6,42,248,42,269.2v167.1c0,21.2,17.4,38.6,38.6,38.6h459.8c21.2,0,38.6-17.4,38.6-38.6V269.2
		C579,248,561.6,230.6,540.4,230.6z M523.2,283.9c8.4,0,15.2,6.8,15.2,15.2c0,8.4-6.8,15.2-15.2,15.2s-15.2-6.8-15.2-15.2
		C508,290.7,514.8,283.9,523.2,283.9z M543,398.5c0,6.5-5.3,11.9-11.9,11.9H89.9c-6.5,0-11.9-5.3-11.9-11.9v0
		c0-6.5,5.3-11.9,11.9-11.9h441.2C537.6,386.6,543,391.9,543,398.5L543,398.5z"/>
	<g>
		<path d="M149.9,530.7h-2.4c-5.7,0-10.3-4.6-10.3-10.3v-26.5c0-5.7,4.6-10.3,10.3-10.3h2.4c5.7,0,10.3,4.6,10.3,10.3v26.5
			C160.2,526,155.5,530.7,149.9,530.7z"/>
		<path d="M230.8,530.7h-2.4c-5.7,0-10.3-4.6-10.3-10.3v-26.5c0-5.7,4.6-10.3,10.3-10.3h2.4c5.7,0,10.3,4.6,10.3,10.3v26.5
			C241.1,526,236.5,530.7,230.8,530.7z"/>
		<path d="M311.7,530.7h-2.4c-5.7,0-10.3-4.6-10.3-10.3v-26.5c0-5.7,4.6-10.3,10.3-10.3h2.4c5.7,0,10.3,4.6,10.3,10.3v26.5
			C322,526,317.4,530.7,311.7,530.7z"/>
		<path d="M392.6,530.7h-2.4c-5.7,0-10.3-4.6-10.3-10.3v-26.5c0-5.7,4.6-10.3,10.3-10.3h2.4c5.7,0,10.3,4.6,10.3,10.3v26.5
			C402.9,526,398.3,530.7,392.6,530.7z"/>
		<path d="M473.5,530.7h-2.4c-5.7,0-10.3-4.6-10.3-10.3v-26.5c0-5.7,4.6-10.3,10.3-10.3h2.4c5.7,0,10.3,4.6,10.3,10.3v26.5
			C483.8,526,479.2,530.7,473.5,530.7z"/>
	</g>
</g>
</svg>
