<svg xmlns="http://www.w3.org/2000/svg" viewBox="40 0 412 592"><path d="M540.4 230.6H80.6C59.4 230.6 42 248 42 269.2v167.1c0 21.2 17.4 38.6 38.6 38.6h459.8c21.2 0 38.6-17.4 38.6-38.6V269.2c0-21.2-17.4-38.6-38.6-38.6zm-17.2 53.3c8.4 0 15.2 6.8 15.2 15.2 0 8.4-6.8 15.2-15.2 15.2s-15.2-6.8-15.2-15.2c0-8.4 6.8-15.2 15.2-15.2zM543 398.5c0 6.5-5.3 11.9-11.9 11.9H89.9c-6.5 0-11.9-5.3-11.9-11.9 0-6.5 5.3-11.9 11.9-11.9h441.2c6.5 0 11.9 5.3 11.9 11.9zM149.9 530.7h-2.4c-5.7 0-10.3-4.6-10.3-10.3v-26.5c0-5.7 4.6-10.3 10.3-10.3h2.4c5.7 0 10.3 4.6 10.3 10.3v26.5c0 5.6-4.7 10.3-10.3 10.3zM230.8 530.7h-2.4c-5.7 0-10.3-4.6-10.3-10.3v-26.5c0-5.7 4.6-10.3 10.3-10.3h2.4c5.7 0 10.3 4.6 10.3 10.3v26.5c0 5.6-4.6 10.3-10.3 10.3zM311.7 530.7h-2.4c-5.7 0-10.3-4.6-10.3-10.3v-26.5c0-5.7 4.6-10.3 10.3-10.3h2.4c5.7 0 10.3 4.6 10.3 10.3v26.5c0 5.6-4.6 10.3-10.3 10.3zM392.6 530.7h-2.4c-5.7 0-10.3-4.6-10.3-10.3v-26.5c0-5.7 4.6-10.3 10.3-10.3h2.4c5.7 0 10.3 4.6 10.3 10.3v26.5c0 5.6-4.6 10.3-10.3 10.3zM473.5 530.7h-2.4c-5.7 0-10.3-4.6-10.3-10.3v-26.5c0-5.7 4.6-10.3 10.3-10.3h2.4c5.7 0 10.3 4.6 10.3 10.3v26.5c0 5.6-4.6 10.3-10.3 10.3z"/></svg>