<svg xmlns="http://www.w3.org/2000/svg" viewBox="0 0 128 100"><path d="M121 4.5H7c-3.9 0-7 3.1-7 7v42.6c0 3.9 3.1 7 7 7h114c3.9 0 7-3.1 7-7V11.5c0-3.9-3.1-7-7-7zM15 13.2h74c1.7 0 3 1.3 3 3s-1.3 3-3 3H15c-1.7 0-3-1.3-3-3s1.3-3 3-3zm102 38.2c0 1.1-.9 2-2 2H14c-1.1 0-2-.9-2-2V37.9c0-1.1.9-2 2-2h101c1.1 0 2 .9 2 2v13.5zm-7-28.2c-3.9 0-7-3.1-7-7s3.1-7 7-7 7 3.1 7 7-3.1 7-7 7zM64 96.5c-1.4 0-2.5-1.1-2.5-2.5V70c0-1.4 1.1-2.5 2.5-2.5s2.5 1.1 2.5 2.5v24c0 1.4-1.1 2.5-2.5 2.5zM25.5 96c-.7 0-1.4-.3-1.9-.9-.9-1-.8-2.6.2-3.5 2.1-1.9 8-7.3 9.4-10.2 1.4-2.8 1.7-8.8 1.7-10.9 0-1.4 1.1-2.5 2.5-2.5s2.5 1.1 2.5 2.5c0 .9-.1 8.7-2.3 13.1-2.2 4.3-9.7 11-10.6 11.8-.3.4-.9.6-1.5.6zM102.3 95.6c-.6 0-1.2-.2-1.6-.6-.9-.8-8.4-7.4-10.6-11.8-2.2-4.4-2.3-12.2-2.3-13.1 0-1.4 1.1-2.5 2.5-2.5s2.5 1.1 2.5 2.5c0 2.1.3 8 1.7 10.9 1.5 2.9 7.3 8.4 9.4 10.2 1 .9 1.1 2.5.2 3.5-.4.6-1.1.9-1.8.9z"/></svg>