<?xml version="1.0" encoding="utf-8"?>
<!-- Generator: Adobe Illustrator 24.1.3, SVG Export Plug-In . SVG Version: 6.00 Build 0)  -->
<svg version="1.1" id="图层_1" xmlns="http://www.w3.org/2000/svg" xmlns:xlink="http://www.w3.org/1999/xlink" x="0px" y="0px"
	 viewBox="0 0 128 100" enable-background="new 0 0 128 100" xml:space="preserve">
<path d="M121,4.5H7c-3.9,0-7,3.1-7,7v42.6c0,3.9,3.1,7,7,7h114c3.9,0,7-3.1,7-7V11.5C128,7.6,124.9,4.5,121,4.5z M15,13.2h74
	c1.7,0,3,1.3,3,3s-1.3,3-3,3H15c-1.7,0-3-1.3-3-3S13.3,13.2,15,13.2z M117,51.4c0,1.1-0.9,2-2,2H14c-1.1,0-2-0.9-2-2V37.9
	c0-1.1,0.9-2,2-2h101c1.1,0,2,0.9,2,2V51.4z M110,23.2c-3.9,0-7-3.1-7-7s3.1-7,7-7s7,3.1,7,7S113.9,23.2,110,23.2z"/>
<path d="M64,96.5c-1.4,0-2.5-1.1-2.5-2.5V70c0-1.4,1.1-2.5,2.5-2.5s2.5,1.1,2.5,2.5v24C66.5,95.4,65.4,96.5,64,96.5z"/>
<path d="M25.5,96c-0.7,0-1.4-0.3-1.9-0.9c-0.9-1-0.8-2.6,0.2-3.5c2.1-1.9,8-7.3,9.4-10.2c1.4-2.8,1.7-8.8,1.7-10.9
	c0-1.4,1.1-2.5,2.5-2.5c0,0,0,0,0,0c1.4,0,2.5,1.1,2.5,2.5c0,0.9-0.1,8.7-2.3,13.1c-2.2,4.3-9.7,11-10.6,11.8
	C26.7,95.8,26.1,96,25.5,96z"/>
<path d="M102.3,95.6c-0.6,0-1.2-0.2-1.6-0.6c-0.9-0.8-8.4-7.4-10.6-11.8c-2.2-4.4-2.3-12.2-2.3-13.1c0-1.4,1.1-2.5,2.5-2.5h0
	c1.4,0,2.5,1.1,2.5,2.5c0,2.1,0.3,8,1.7,10.9c1.5,2.9,7.3,8.4,9.4,10.2c1,0.9,1.1,2.5,0.2,3.5C103.7,95.3,103,95.6,102.3,95.6z"/>
<g>
</g>
<g>
</g>
<g>
</g>
<g>
</g>
<g>
</g>
<g>
</g>
<g>
</g>
<g>
</g>
<g>
</g>
<g>
</g>
<g>
</g>
</svg>
