<?xml version="1.0" encoding="utf-8"?>
<!-- Generator: Adobe Illustrator 24.1.3, SVG Export Plug-In . SVG Version: 6.00 Build 0)  -->
<svg version="1.1" id="图层_1" xmlns="http://www.w3.org/2000/svg" xmlns:xlink="http://www.w3.org/1999/xlink" x="0px" y="0px"
	 viewBox="0 0 128 100" enable-background="new 0 0 128 100" xml:space="preserve">
<g>
	<path d="M110,1H22c-2.8,0-5,2.2-5,5v88c0,2.8,2.2,5,5,5h88c2.8,0,5-2.2,5-5V6C115,3.2,112.8,1,110,1z M100,74H30V10h70V74z"/>
</g>
<g>
	<polygon points="81,20 48,20 48,28 81,28 81,20 	"/>
</g>
<g>
	<path d="M36.4,34.2l0.7,0.9c0.2,0.2,0.3,0.4,0.4,0.7h0c0.1-0.2,0.3-0.4,0.4-0.7l0.7-0.9h0.4l-1.3,1.9l1.4,2h-0.4l-0.7-1
		c-0.2-0.2-0.3-0.5-0.5-0.7h0c-0.1,0.2-0.3,0.5-0.5,0.7l-0.7,1h-0.4l1.4-2L36,34.2H36.4z"/>
	<path d="M39.8,34.2l0.7,0.9c0.2,0.2,0.3,0.4,0.4,0.7h0c0.1-0.2,0.3-0.4,0.4-0.7l0.7-0.9h0.4l-1.3,1.9l1.4,2h-0.4l-0.7-1
		c-0.2-0.2-0.3-0.5-0.5-0.7h0c-0.1,0.2-0.3,0.5-0.5,0.7l-0.7,1h-0.4l1.4-2l-1.3-1.9H39.8z"/>
	<path d="M43.3,34.2l0.7,0.9c0.2,0.2,0.3,0.4,0.4,0.7h0c0.1-0.2,0.3-0.4,0.4-0.7l0.7-0.9h0.4l-1.3,1.9l1.4,2h-0.4l-0.7-1
		c-0.2-0.2-0.3-0.5-0.5-0.7h0c-0.1,0.2-0.3,0.5-0.5,0.7l-0.7,1h-0.4l1.4-2l-1.3-1.9H43.3z"/>
	<path d="M46.7,34.2l0.7,0.9c0.2,0.2,0.3,0.4,0.4,0.7h0c0.1-0.2,0.3-0.4,0.4-0.7l0.7-0.9h0.4L48,36.1l1.4,2H49l-0.7-1
		c-0.2-0.2-0.3-0.5-0.5-0.7h0c-0.1,0.2-0.3,0.5-0.5,0.7l-0.7,1h-0.4l1.4-2l-1.3-1.9H46.7z"/>
	<path d="M50.1,34.2l0.7,0.9c0.2,0.2,0.3,0.4,0.4,0.7h0c0.1-0.2,0.3-0.4,0.4-0.7l0.7-0.9h0.4l-1.3,1.9l1.4,2h-0.4l-0.7-1
		c-0.2-0.2-0.3-0.5-0.5-0.7h0c-0.1,0.2-0.3,0.5-0.5,0.7l-0.7,1h-0.4l1.4-2l-1.3-1.9H50.1z"/>
	<path d="M55.3,34.2l0.7,0.9c0.2,0.2,0.3,0.4,0.4,0.7h0c0.1-0.2,0.3-0.4,0.4-0.7l0.7-0.9H58l-1.3,1.9l1.4,2h-0.4l-0.7-1
		c-0.2-0.2-0.3-0.5-0.5-0.7h0c-0.1,0.2-0.3,0.5-0.5,0.7l-0.7,1h-0.4l1.4-2l-1.3-1.9H55.3z"/>
	<path d="M58.8,34.2l0.7,0.9c0.2,0.2,0.3,0.4,0.4,0.7h0c0.1-0.2,0.3-0.4,0.4-0.7l0.7-0.9h0.4l-1.3,1.9l1.4,2H61l-0.7-1
		c-0.2-0.2-0.3-0.5-0.5-0.7h0c-0.1,0.2-0.3,0.5-0.5,0.7l-0.7,1h-0.4l1.4-2l-1.3-1.9H58.8z"/>
	<path d="M62.2,34.2l0.7,0.9c0.2,0.2,0.3,0.4,0.4,0.7h0c0.1-0.2,0.3-0.4,0.4-0.7l0.7-0.9h0.4l-1.3,1.9l1.4,2h-0.4l-0.7-1
		c-0.2-0.2-0.3-0.5-0.5-0.7h0c-0.1,0.2-0.3,0.5-0.5,0.7l-0.7,1h-0.4l1.4-2l-1.3-1.9H62.2z"/>
	<path d="M65.6,34.2l0.7,0.9c0.2,0.2,0.3,0.4,0.4,0.7h0c0.1-0.2,0.3-0.4,0.4-0.7l0.7-0.9h0.4l-1.3,1.9l1.4,2h-0.4l-0.7-1
		c-0.2-0.2-0.3-0.5-0.5-0.7h0c-0.1,0.2-0.3,0.5-0.5,0.7l-0.7,1h-0.4l1.4-2l-1.3-1.9H65.6z"/>
	<path d="M69,34.2l0.7,0.9c0.2,0.2,0.3,0.4,0.4,0.7h0c0.1-0.2,0.3-0.4,0.4-0.7l0.7-0.9h0.4l-1.3,1.9l1.4,2h-0.4l-0.7-1
		c-0.2-0.2-0.3-0.5-0.5-0.7h0c-0.1,0.2-0.3,0.5-0.5,0.7l-0.7,1h-0.4l1.4-2l-1.3-1.9H69z"/>
	<path d="M72.5,34.2l0.7,0.9c0.2,0.2,0.3,0.4,0.4,0.7h0c0.1-0.2,0.3-0.4,0.4-0.7l0.7-0.9h0.4l-1.3,1.9l1.4,2h-0.4l-0.7-1
		c-0.2-0.2-0.3-0.5-0.5-0.7h0c-0.1,0.2-0.3,0.5-0.5,0.7l-0.7,1H72l1.4-2l-1.3-1.9H72.5z"/>
	<path d="M77.7,34.2l0.7,0.9c0.2,0.2,0.3,0.4,0.4,0.7h0c0.1-0.2,0.3-0.4,0.4-0.7l0.7-0.9h0.4L79,36.1l1.4,2h-0.4l-0.7-1
		c-0.2-0.2-0.3-0.5-0.5-0.7h0c-0.1,0.2-0.3,0.5-0.5,0.7l-0.7,1h-0.4l1.4-2l-1.3-1.9H77.7z"/>
	<path d="M81.1,34.2l0.7,0.9c0.2,0.2,0.3,0.4,0.4,0.7h0c0.1-0.2,0.3-0.4,0.4-0.7l0.7-0.9h0.4l-1.3,1.9l1.4,2h-0.4l-0.7-1
		c-0.2-0.2-0.3-0.5-0.5-0.7h0c-0.1,0.2-0.3,0.5-0.5,0.7l-0.7,1h-0.4l1.4-2l-1.3-1.9H81.1z"/>
	<path d="M84.5,34.2l0.7,0.9c0.2,0.2,0.3,0.4,0.4,0.7h0c0.1-0.2,0.3-0.4,0.4-0.7l0.7-0.9h0.4l-1.3,1.9l1.4,2h-0.4l-0.7-1
		c-0.2-0.2-0.3-0.5-0.5-0.7h0c-0.1,0.2-0.3,0.5-0.5,0.7l-0.7,1H84l1.4-2l-1.3-1.9H84.5z"/>
	<path d="M88,34.2l0.7,0.9c0.2,0.2,0.3,0.4,0.4,0.7h0c0.1-0.2,0.3-0.4,0.4-0.7l0.7-0.9h0.4l-1.3,1.9l1.4,2h-0.4l-0.7-1
		c-0.2-0.2-0.3-0.5-0.5-0.7h0c-0.1,0.2-0.3,0.5-0.5,0.7l-0.7,1h-0.4l1.4-2l-1.3-1.9H88z"/>
	<path d="M91.4,34.2l0.7,0.9c0.2,0.2,0.3,0.4,0.4,0.7h0c0.1-0.2,0.3-0.4,0.4-0.7l0.7-0.9H94l-1.3,1.9l1.4,2h-0.4l-0.7-1
		c-0.2-0.2-0.3-0.5-0.5-0.7h0c-0.1,0.2-0.3,0.5-0.5,0.7l-0.7,1h-0.4l1.4-2L91,34.2H91.4z"/>
	<path d="M37.1,43.8l0.7,0.9c0.2,0.2,0.3,0.4,0.4,0.7h0c0.1-0.2,0.3-0.4,0.4-0.7l0.7-0.9h0.4l-1.3,1.9l1.4,2h-0.4l-0.7-1
		c-0.2-0.2-0.3-0.5-0.5-0.7h0c-0.1,0.2-0.3,0.5-0.5,0.7l-0.7,1h-0.4l1.4-2l-1.3-1.9H37.1z"/>
	<path d="M40.5,43.8l0.7,0.9c0.2,0.2,0.3,0.4,0.4,0.7h0c0.1-0.2,0.3-0.4,0.4-0.7l0.7-0.9h0.4l-1.3,1.9l1.4,2h-0.4l-0.7-1
		c-0.2-0.2-0.3-0.5-0.5-0.7h0c-0.1,0.2-0.3,0.5-0.5,0.7l-0.7,1H40l1.4-2l-1.3-1.9H40.5z"/>
	<path d="M44,43.8l0.7,0.9c0.2,0.2,0.3,0.4,0.4,0.7h0c0.1-0.2,0.3-0.4,0.4-0.7l0.7-0.9h0.4l-1.3,1.9l1.4,2h-0.4l-0.7-1
		c-0.2-0.2-0.3-0.5-0.5-0.7h0c-0.1,0.2-0.3,0.5-0.5,0.7l-0.7,1h-0.4l1.4-2l-1.3-1.9H44z"/>
	<path d="M49.1,43.8l0.7,0.9c0.2,0.2,0.3,0.4,0.4,0.7h0c0.1-0.2,0.3-0.4,0.4-0.7l0.7-0.9h0.4l-1.3,1.9l1.4,2h-0.4l-0.7-1
		c-0.2-0.2-0.3-0.5-0.5-0.7h0c-0.1,0.2-0.3,0.5-0.5,0.7l-0.7,1h-0.4l1.4-2l-1.3-1.9H49.1z"/>
	<path d="M52.6,43.8l0.7,0.9c0.2,0.2,0.3,0.4,0.4,0.7h0c0.1-0.2,0.3-0.4,0.4-0.7l0.7-0.9h0.4l-1.3,1.9l1.4,2h-0.4l-0.7-1
		c-0.2-0.2-0.3-0.5-0.5-0.7h0c-0.1,0.2-0.3,0.5-0.5,0.7l-0.7,1h-0.4l1.4-2l-1.3-1.9H52.6z"/>
	<path d="M56,43.8l0.7,0.9c0.2,0.2,0.3,0.4,0.4,0.7h0c0.1-0.2,0.3-0.4,0.4-0.7l0.7-0.9h0.4l-1.3,1.9l1.4,2h-0.4l-0.7-1
		c-0.2-0.2-0.3-0.5-0.5-0.7h0c-0.1,0.2-0.3,0.5-0.5,0.7l-0.7,1h-0.4l1.4-2l-1.3-1.9H56z"/>
	<path d="M37.1,53.4l0.7,0.9c0.2,0.2,0.3,0.4,0.4,0.7h0c0.1-0.2,0.3-0.4,0.4-0.7l0.7-0.9h0.4l-1.3,1.9l1.4,2h-0.4l-0.7-1
		c-0.2-0.2-0.3-0.5-0.5-0.7h0c-0.1,0.3-0.3,0.5-0.5,0.7l-0.7,1h-0.4l1.4-2l-1.3-1.9H37.1z"/>
	<path d="M40.5,53.4l0.7,0.9c0.2,0.2,0.3,0.4,0.4,0.7h0c0.1-0.2,0.3-0.4,0.4-0.7l0.7-0.9h0.4l-1.3,1.9l1.4,2h-0.4l-0.7-1
		c-0.2-0.2-0.3-0.5-0.5-0.7h0c-0.1,0.3-0.3,0.5-0.5,0.7l-0.7,1H40l1.4-2l-1.3-1.9H40.5z"/>
	<path d="M44,53.4l0.7,0.9c0.2,0.2,0.3,0.4,0.4,0.7h0c0.1-0.2,0.3-0.4,0.4-0.7l0.7-0.9h0.4l-1.3,1.9l1.4,2h-0.4l-0.7-1
		c-0.2-0.2-0.3-0.5-0.5-0.7h0c-0.1,0.3-0.3,0.5-0.5,0.7l-0.7,1h-0.4l1.4-2l-1.3-1.9H44z"/>
	<path d="M47.4,53.4l0.7,0.9c0.2,0.2,0.3,0.4,0.4,0.7h0c0.1-0.2,0.3-0.4,0.4-0.7l0.7-0.9H50l-1.3,1.9l1.4,2h-0.4l-0.7-1
		c-0.2-0.2-0.3-0.5-0.5-0.7h0c-0.1,0.3-0.3,0.5-0.5,0.7l-0.7,1h-0.4l1.4-2L47,53.4H47.4z"/>
	<path d="M50.8,53.4l0.7,0.9c0.2,0.2,0.3,0.4,0.4,0.7h0c0.1-0.2,0.3-0.4,0.4-0.7l0.7-0.9h0.4l-1.3,1.9l1.4,2h-0.4l-0.7-1
		c-0.2-0.2-0.3-0.5-0.5-0.7h0c-0.1,0.3-0.3,0.5-0.5,0.7l-0.7,1h-0.4l1.4-2l-1.3-1.9H50.8z"/>
	<path d="M54.3,53.4l0.7,0.9c0.2,0.2,0.3,0.4,0.4,0.7h0c0.1-0.2,0.3-0.4,0.4-0.7l0.7-0.9h0.4l-1.3,1.9l1.4,2h-0.4l-0.7-1
		c-0.2-0.2-0.3-0.5-0.5-0.7h0c-0.1,0.3-0.3,0.5-0.5,0.7l-0.7,1h-0.4l1.4-2l-1.3-1.9H54.3z"/>
	<path d="M57.7,53.4l0.7,0.9c0.2,0.2,0.3,0.4,0.4,0.7h0c0.1-0.2,0.3-0.4,0.4-0.7l0.7-0.9h0.4L59,55.3l1.4,2h-0.4l-0.7-1
		c-0.2-0.2-0.3-0.5-0.5-0.7h0c-0.1,0.3-0.3,0.5-0.5,0.7l-0.7,1h-0.4l1.4-2l-1.3-1.9H57.7z"/>
	<path d="M61.1,53.4l0.7,0.9c0.2,0.2,0.3,0.4,0.4,0.7h0c0.1-0.2,0.3-0.4,0.4-0.7l0.7-0.9h0.4l-1.3,1.9l1.4,2h-0.4l-0.7-1
		c-0.2-0.2-0.3-0.5-0.5-0.7h0c-0.1,0.3-0.3,0.5-0.5,0.7l-0.7,1h-0.4l1.4-2l-1.3-1.9H61.1z"/>
	<path d="M64.6,53.4l0.7,0.9c0.2,0.2,0.3,0.4,0.4,0.7h0c0.1-0.2,0.3-0.4,0.4-0.7l0.7-0.9h0.4l-1.3,1.9l1.4,2h-0.4l-0.7-1
		c-0.2-0.2-0.3-0.5-0.5-0.7h0c-0.1,0.3-0.3,0.5-0.5,0.7l-0.7,1H64l1.4-2l-1.3-1.9H64.6z"/>
	<path d="M68,53.4l0.7,0.9c0.2,0.2,0.3,0.4,0.4,0.7h0c0.1-0.2,0.3-0.4,0.4-0.7l0.7-0.9h0.4l-1.3,1.9l1.4,2h-0.4l-0.7-1
		c-0.2-0.2-0.3-0.5-0.5-0.7h0c-0.1,0.3-0.3,0.5-0.5,0.7l-0.7,1h-0.4l1.4-2l-1.3-1.9H68z"/>
	<path d="M71.4,53.4l0.7,0.9c0.2,0.2,0.3,0.4,0.4,0.7h0c0.1-0.2,0.3-0.4,0.4-0.7l0.7-0.9h0.4l-1.3,1.9l1.4,2h-0.4l-0.7-1
		c-0.2-0.2-0.3-0.5-0.5-0.7h0c-0.1,0.3-0.3,0.5-0.5,0.7l-0.7,1h-0.4l1.4-2L71,53.4H71.4z"/>
	<path d="M39.9,66.9H34V61h5.9V66.9z"/>
	<path d="M47.9,66.9H42V61h5.9V66.9z"/>
	<path d="M55.9,66.9H50V61h5.9V66.9z"/>
	<path d="M63.9,66.9H58V61h5.9V66.9z"/>
	<path d="M71.9,66.9H66V61h5.9V66.9z"/>
	<path d="M79.9,66.9H74V61h5.9V66.9z"/>
	<path d="M87.9,66.9H82V61h5.9V66.9z"/>
	<path d="M95.9,66.9H90V61h5.9V66.9z"/>
</g>
<g>
</g>
<g>
</g>
<g>
</g>
<g>
</g>
<g>
</g>
<g>
</g>
<g>
</g>
<g>
</g>
<g>
</g>
<g>
</g>
<g>
</g>
</svg>
