<svg xmlns="http://www.w3.org/2000/svg" viewBox="0 0 128 100"><path d="M110 1H22c-2.8 0-5 2.2-5 5v88c0 2.8 2.2 5 5 5h88c2.8 0 5-2.2 5-5V6c0-2.8-2.2-5-5-5zm-10 73H30V10h70v64z"/><path d="M81 20H48v8h33v-8zM36.4 34.2l.7.9c.2.2.3.4.4.7.1-.2.3-.4.4-.7l.7-.9h.4l-1.3 1.9 1.4 2h-.4l-.7-1c-.2-.2-.3-.5-.5-.7-.1.2-.3.5-.5.7l-.7 1h-.4l1.4-2-1.3-1.9h.4zM39.8 34.2l.7.9c.2.2.3.4.4.7.1-.2.3-.4.4-.7l.7-.9h.4l-1.3 1.9 1.4 2h-.4l-.7-1c-.2-.2-.3-.5-.5-.7-.1.2-.3.5-.5.7l-.7 1h-.4l1.4-2-1.3-1.9h.4zM43.3 34.2l.7.9c.2.2.3.4.4.7.1-.2.3-.4.4-.7l.7-.9h.4l-1.3 1.9 1.4 2h-.4l-.7-1c-.2-.2-.3-.5-.5-.7-.1.2-.3.5-.5.7l-.7 1h-.4l1.4-2-1.3-1.9h.4zM46.7 34.2l.7.9c.2.2.3.4.4.7.1-.2.3-.4.4-.7l.7-.9h.4L48 36.1l1.4 2H49l-.7-1c-.2-.2-.3-.5-.5-.7-.1.2-.3.5-.5.7l-.7 1h-.4l1.4-2-1.3-1.9h.4zM50.1 34.2l.7.9c.2.2.3.4.4.7.1-.2.3-.4.4-.7l.7-.9h.4l-1.3 1.9 1.4 2h-.4l-.7-1c-.2-.2-.3-.5-.5-.7-.1.2-.3.5-.5.7l-.7 1h-.4l1.4-2-1.3-1.9h.4zM55.3 34.2l.7.9c.2.2.3.4.4.7.1-.2.3-.4.4-.7l.7-.9h.5l-1.3 1.9 1.4 2h-.4l-.7-1c-.2-.2-.3-.5-.5-.7-.1.2-.3.5-.5.7l-.7 1h-.4l1.4-2-1.3-1.9h.3zM58.8 34.2l.7.9c.2.2.3.4.4.7.1-.2.3-.4.4-.7l.7-.9h.4l-1.3 1.9 1.4 2H61l-.7-1c-.2-.2-.3-.5-.5-.7-.1.2-.3.5-.5.7l-.7 1h-.4l1.4-2-1.3-1.9h.5zM62.2 34.2l.7.9c.2.2.3.4.4.7.1-.2.3-.4.4-.7l.7-.9h.4l-1.3 1.9 1.4 2h-.4l-.7-1c-.2-.2-.3-.5-.5-.7-.1.2-.3.5-.5.7l-.7 1h-.4l1.4-2-1.3-1.9h.4zM65.6 34.2l.7.9c.2.2.3.4.4.7.1-.2.3-.4.4-.7l.7-.9h.4l-1.3 1.9 1.4 2h-.4l-.7-1c-.2-.2-.3-.5-.5-.7-.1.2-.3.5-.5.7l-.7 1h-.4l1.4-2-1.3-1.9h.4zM69 34.2l.7.9c.2.2.3.4.4.7.1-.2.3-.4.4-.7l.7-.9h.4l-1.3 1.9 1.4 2h-.4l-.7-1c-.2-.2-.3-.5-.5-.7-.1.2-.3.5-.5.7l-.7 1h-.4l1.4-2-1.3-1.9h.4zM72.5 34.2l.7.9c.2.2.3.4.4.7.1-.2.3-.4.4-.7l.7-.9h.4l-1.3 1.9 1.4 2h-.4l-.7-1c-.2-.2-.3-.5-.5-.7-.1.2-.3.5-.5.7l-.7 1H72l1.4-2-1.3-1.9h.4zM77.7 34.2l.7.9c.2.2.3.4.4.7.1-.2.3-.4.4-.7l.7-.9h.4L79 36.1l1.4 2H80l-.7-1c-.2-.2-.3-.5-.5-.7-.1.2-.3.5-.5.7l-.7 1h-.4l1.4-2-1.3-1.9h.4zM81.1 34.2l.7.9c.2.2.3.4.4.7.1-.2.3-.4.4-.7l.7-.9h.4l-1.3 1.9 1.4 2h-.4l-.7-1c-.2-.2-.3-.5-.5-.7-.1.2-.3.5-.5.7l-.7 1h-.4l1.4-2-1.3-1.9h.4zM84.5 34.2l.7.9c.2.2.3.4.4.7.1-.2.3-.4.4-.7l.7-.9h.4l-1.3 1.9 1.4 2h-.4l-.7-1c-.2-.2-.3-.5-.5-.7-.1.2-.3.5-.5.7l-.7 1H84l1.4-2-1.3-1.9h.4zM88 34.2l.7.9c.2.2.3.4.4.7.1-.2.3-.4.4-.7l.7-.9h.4l-1.3 1.9 1.4 2h-.4l-.7-1c-.2-.2-.3-.5-.5-.7-.1.2-.3.5-.5.7l-.7 1h-.4l1.4-2-1.3-1.9h.4zM91.4 34.2l.7.9c.2.2.3.4.4.7.1-.2.3-.4.4-.7l.7-.9h.4l-1.3 1.9 1.4 2h-.4l-.7-1c-.2-.2-.3-.5-.5-.7-.1.2-.3.5-.5.7l-.7 1h-.4l1.4-2-1.3-1.9h.4zM37.1 43.8l.7.9c.2.2.3.4.4.7.1-.2.3-.4.4-.7l.7-.9h.4l-1.3 1.9 1.4 2h-.4l-.7-1c-.2-.2-.3-.5-.5-.7-.1.2-.3.5-.5.7l-.7 1h-.4l1.4-2-1.3-1.9h.4zM40.5 43.8l.7.9c.2.2.3.4.4.7.1-.2.3-.4.4-.7l.7-.9h.4l-1.3 1.9 1.4 2h-.4l-.7-1c-.2-.2-.3-.5-.5-.7-.1.2-.3.5-.5.7l-.7 1H40l1.4-2-1.3-1.9h.4zM44 43.8l.7.9c.2.2.3.4.4.7.1-.2.3-.4.4-.7l.7-.9h.4l-1.3 1.9 1.4 2h-.4l-.7-1c-.2-.2-.3-.5-.5-.7-.1.2-.3.5-.5.7l-.7 1h-.4l1.4-2-1.3-1.9h.4zM49.1 43.8l.7.9c.2.2.3.4.4.7.1-.2.3-.4.4-.7l.7-.9h.4l-1.3 1.9 1.4 2h-.4l-.7-1c-.2-.2-.3-.5-.5-.7-.1.2-.3.5-.5.7l-.7 1h-.4l1.4-2-1.3-1.9h.4zM52.6 43.8l.7.9c.2.2.3.4.4.7.1-.2.3-.4.4-.7l.7-.9h.4l-1.3 1.9 1.4 2h-.4l-.7-1c-.2-.2-.3-.5-.5-.7-.1.2-.3.5-.5.7l-.7 1h-.4l1.4-2-1.3-1.9h.4zM56 43.8l.7.9c.2.2.3.4.4.7.1-.2.3-.4.4-.7l.7-.9h.4l-1.3 1.9 1.4 2h-.4l-.7-1c-.2-.2-.3-.5-.5-.7-.1.2-.3.5-.5.7l-.7 1h-.4l1.4-2-1.3-1.9h.4zM37.1 53.4l.7.9c.2.2.3.4.4.7.1-.2.3-.4.4-.7l.7-.9h.4l-1.3 1.9 1.4 2h-.4l-.7-1c-.2-.2-.3-.5-.5-.7-.1.3-.3.5-.5.7l-.7 1h-.4l1.4-2-1.3-1.9h.4zM40.5 53.4l.7.9c.2.2.3.4.4.7.1-.2.3-.4.4-.7l.7-.9h.4l-1.3 1.9 1.4 2h-.4l-.7-1c-.2-.2-.3-.5-.5-.7-.1.3-.3.5-.5.7l-.7 1H40l1.4-2-1.3-1.9h.4zM44 53.4l.7.9c.2.2.3.4.4.7.1-.2.3-.4.4-.7l.7-.9h.4l-1.3 1.9 1.4 2h-.4l-.7-1c-.2-.2-.3-.5-.5-.7-.1.3-.3.5-.5.7l-.7 1h-.4l1.4-2-1.3-1.9h.4zM47.4 53.4l.7.9c.2.2.3.4.4.7.1-.2.3-.4.4-.7l.7-.9h.4l-1.3 1.9 1.4 2h-.4l-.7-1c-.2-.2-.3-.5-.5-.7-.1.3-.3.5-.5.7l-.7 1h-.4l1.4-2-1.3-1.9h.4zM50.8 53.4l.7.9c.2.2.3.4.4.7.1-.2.3-.4.4-.7l.7-.9h.4l-1.3 1.9 1.4 2h-.4l-.7-1c-.2-.2-.3-.5-.5-.7-.1.3-.3.5-.5.7l-.7 1h-.4l1.4-2-1.3-1.9h.4zM54.3 53.4l.7.9c.2.2.3.4.4.7.1-.2.3-.4.4-.7l.7-.9h.4l-1.3 1.9 1.4 2h-.4l-.7-1c-.2-.2-.3-.5-.5-.7-.1.3-.3.5-.5.7l-.7 1h-.4l1.4-2-1.3-1.9h.4zM57.7 53.4l.7.9c.2.2.3.4.4.7.1-.2.3-.4.4-.7l.7-.9h.4L59 55.3l1.4 2H60l-.7-1c-.2-.2-.3-.5-.5-.7-.1.3-.3.5-.5.7l-.7 1h-.4l1.4-2-1.3-1.9h.4zM61.1 53.4l.7.9c.2.2.3.4.4.7.1-.2.3-.4.4-.7l.7-.9h.4l-1.3 1.9 1.4 2h-.4l-.7-1c-.2-.2-.3-.5-.5-.7-.1.3-.3.5-.5.7l-.7 1h-.4l1.4-2-1.3-1.9h.4zM64.6 53.4l.7.9c.2.2.3.4.4.7.1-.2.3-.4.4-.7l.7-.9h.4l-1.3 1.9 1.4 2h-.4l-.7-1c-.2-.2-.3-.5-.5-.7-.1.3-.3.5-.5.7l-.7 1H64l1.4-2-1.3-1.9h.5zM68 53.4l.7.9c.2.2.3.4.4.7.1-.2.3-.4.4-.7l.7-.9h.4l-1.3 1.9 1.4 2h-.4l-.7-1c-.2-.2-.3-.5-.5-.7-.1.3-.3.5-.5.7l-.7 1h-.4l1.4-2-1.3-1.9h.4zM71.4 53.4l.7.9c.2.2.3.4.4.7.1-.2.3-.4.4-.7l.7-.9h.4l-1.3 1.9 1.4 2h-.4l-.7-1c-.2-.2-.3-.5-.5-.7-.1.3-.3.5-.5.7l-.7 1h-.4l1.4-2-1.3-1.9h.4zM39.9 66.9H34V61h5.9v5.9zM47.9 66.9H42V61h5.9v5.9zM55.9 66.9H50V61h5.9v5.9zM63.9 66.9H58V61h5.9v5.9zM71.9 66.9H66V61h5.9v5.9zM79.9 66.9H74V61h5.9v5.9zM87.9 66.9H82V61h5.9v5.9zM95.9 66.9H90V61h5.9v5.9z"/></svg>