<svg xmlns="http://www.w3.org/2000/svg" viewBox="40 0 412 592"><path d="M244.3 361.6c0 28.3 23 51.3 51.3 51.3 28.3 0 51.3-23 51.3-51.3 0-28.3-23-51.3-51.3-51.3-28.3 0-51.3 23-51.3 51.3zM382.3 164c-4.3-1.9-9.4 0-11.4 4.3l-44.8 95.3c-1 2.2-1.1 4.6-.2 6.9.9 2.3 2.7 3.8 5 4.7 40.5 15.8 65.5 56.7 60.7 99.9-.3 2.4.5 3.9 2.1 5.8s3.9 1.1 6.3 1.2l105.3 1h.4c4.5 0 8.4.2 8.7-4.4 7.2-93.6-45.8-177.7-132.1-214.7zM198.6 387.8c1.5-1.9 2.1-4.4 1.7-6.8-7.1-43 15.7-85.5 55.4-103.4 2.2-1 3.9-2.9 4.7-5.2.8-2.3.6-4.8-.6-7l-49.7-92.9c-2.2-4.2-7.4-5.8-11.6-3.8-84.2 41.5-132.6 131.9-120.4 225 .6 4.4 4.3 7.6 8.7 7.6h.8l104.9-10.1c2.4-.3 4.6-1.5 6.1-3.4zm168.3 56.4c-1.3-2-3.5-3.4-5.9-3.8-2.4-.4-4.9.2-6.8 1.7-33.4 25.6-83.9 25.6-117.3 0-1.9-1.5-4.4-2.1-6.8-1.7-2.4.4-4.5 1.8-5.9 3.8l-58.5 87.7c-2.6 3.9-1.6 9.2 2.2 12 37.4 26.8 81.5 40.9 127.6 40.9 46.1 0 90.2-14.2 127.6-40.9 3.8-2.8 4.8-8.1 2.2-12l-58.4-87.7zm0 0"/></svg>