<?xml version="1.0" encoding="utf-8"?>
<!-- Generator: Adobe Illustrator 21.0.0, SVG Export Plug-In . SVG Version: 6.00 Build 0)  -->
<svg version="1.1" id="图层_1" xmlns="http://www.w3.org/2000/svg" xmlns:xlink="http://www.w3.org/1999/xlink" x="0px" y="0px"
	 viewBox="40 0 412 592" style="enable-background:new 0 0 612 792;" xml:space="preserve">
<style type="text/css">
	.st0{fill:#2577FF;}
</style>
<g>
	<path d="M244.3,361.6c0,28.3,23,51.3,51.3,51.3c28.3,0,51.3-23,51.3-51.3c0-28.3-23-51.3-51.3-51.3
		C267.3,310.3,244.3,333.3,244.3,361.6L244.3,361.6z"/>
	<path class="st0" d="M215,378.5"/>
	<path d="M382.3,164c-4.3-1.9-9.4,0-11.4,4.3l-44.8,95.3c-1,2.2-1.1,4.6-0.2,6.9c0.9,2.3,2.7,3.8,5,4.7
		c40.5,15.8,65.5,56.7,60.7,99.9c-0.3,2.4,0.5,3.9,2.1,5.8c1.6,1.9,3.9,1.1,6.3,1.2l105.3,1h0.4c4.5,0,8.4,0.2,8.7-4.4
		C521.6,285.1,468.6,201,382.3,164L382.3,164z M198.6,387.8c1.5-1.9,2.1-4.4,1.7-6.8c-7.1-43,15.7-85.5,55.4-103.4
		c2.2-1,3.9-2.9,4.7-5.2c0.8-2.3,0.6-4.8-0.6-7l-49.7-92.9c-2.2-4.2-7.4-5.8-11.6-3.8C114.3,210.2,65.9,300.6,78.1,393.7
		c0.6,4.4,4.3,7.6,8.7,7.6c0.3,0,0.6,0,0.8,0l104.9-10.1C194.9,390.9,197.1,389.7,198.6,387.8L198.6,387.8z M366.9,444.2
		c-1.3-2-3.5-3.4-5.9-3.8c-2.4-0.4-4.9,0.2-6.8,1.7c-33.4,25.6-83.9,25.6-117.3,0c-1.9-1.5-4.4-2.1-6.8-1.7
		c-2.4,0.4-4.5,1.8-5.9,3.8l-58.5,87.7c-2.6,3.9-1.6,9.2,2.2,12c37.4,26.8,81.5,40.9,127.6,40.9c46.1,0,90.2-14.2,127.6-40.9
		c3.8-2.8,4.8-8.1,2.2-12L366.9,444.2z M366.9,444.2"/>
</g>
</svg>
