<?xml version="1.0" encoding="utf-8"?>
<!-- Generator: Adobe Illustrator 24.1.3, SVG Export Plug-In . SVG Version: 6.00 Build 0)  -->
<svg version="1.1" id="图层_1" xmlns="http://www.w3.org/2000/svg" xmlns:xlink="http://www.w3.org/1999/xlink" x="0px" y="0px"
	 viewBox="0 0 128 100" enable-background="new 0 0 128 100" xml:space="preserve">
<path d="M30.1,58.8C14.2,58.8,1.3,45.9,1.3,30S14.2,1.2,30.1,1.2c10.9,0,20.6,6,25.6,15.7c0.6-0.1,1.2-0.1,1.8-0.1h55.1
	c7.3,0,13.3,6,13.3,13.3s-6,13.3-13.3,13.3H57.5c-0.6,0-1.2,0-1.8-0.1C50.8,52.8,41,58.8,30.1,58.8z M30.1,2.2
	C14.8,2.2,2.3,14.7,2.3,30s12.5,27.8,27.8,27.8c10.6,0,20.1-5.9,24.9-15.4l0.2-0.3l0.4,0.1c0.7,0.1,1.4,0.2,2,0.2h55.1
	c6.8,0,12.3-5.5,12.3-12.3s-5.5-12.3-12.3-12.3H57.5c-0.6,0-1.3,0.1-2,0.2l-0.4,0.1L55,17.6C50.3,8.1,40.7,2.2,30.1,2.2z"/>
<path d="M49.5,38c0.4,0.1,0.8,0.1,1.2,0.1l48.9,0c4.5,0,8.1-3.7,8.1-8.1c0-4.5-3.7-8.1-8.1-8.1l-48.9,0c-0.4,0-0.8,0.1-1.2,0.1
	C46.3,13.9,38.3,8.1,29.1,8.1C16.9,8.1,7.1,17.9,7.1,30s9.8,21.9,21.9,21.9C38.3,51.9,46.3,46.1,49.5,38z"/>
<path d="M121,99c-1.7,0-3-1.3-3-3V56.7c0-1.7,1.3-3,3-3s3,1.3,3,3V96C124,97.7,122.7,99,121,99z"/>
<path d="M97.3,99c-1.7,0-3-1.3-3-3V56.7c0-1.7,1.3-3,3-3s3,1.3,3,3V96C100.3,97.7,99,99,97.3,99z"/>
<path d="M73.7,99c-1.7,0-3-1.3-3-3V56.7c0-1.7,1.3-3,3-3s3,1.3,3,3V96C76.7,97.7,75.3,99,73.7,99z"/>
<path d="M50,99c-1.7,0-3-1.3-3-3V56.7c0-1.7,1.3-3,3-3s3,1.3,3,3V96C53,97.7,51.7,99,50,99z"/>
<path d="M109.2,88.8c-1.7,0-3-1.3-3-3V56.7c0-1.7,1.3-3,3-3s3,1.3,3,3v29.2C112.2,87.5,110.8,88.8,109.2,88.8z"/>
<path d="M85.5,88.8c-1.7,0-3-1.3-3-3V56.7c0-1.7,1.3-3,3-3s3,1.3,3,3v29.2C88.5,87.5,87.2,88.8,85.5,88.8z"/>
<path d="M61.7,89c-1.7,0-3-1.3-3-3V56.8c0-1.7,1.3-3,3-3s3,1.3,3,3V86C64.7,87.6,63.3,89,61.7,89z"/>
<g>
</g>
<g>
</g>
<g>
</g>
<g>
</g>
<g>
</g>
<g>
</g>
<g>
</g>
<g>
</g>
<g>
</g>
<g>
</g>
<g>
</g>
</svg>
