<svg xmlns="http://www.w3.org/2000/svg" viewBox="0 0 128 100"><path d="M30.1 58.8C14.2 58.8 1.3 45.9 1.3 30S14.2 1.2 30.1 1.2c10.9 0 20.6 6 25.6 15.7.6-.1 1.2-.1 1.8-.1h55.1c7.3 0 13.3 6 13.3 13.3s-6 13.3-13.3 13.3H57.5c-.6 0-1.2 0-1.8-.1-4.9 9.5-14.7 15.5-25.6 15.5zm0-56.6C14.8 2.2 2.3 14.7 2.3 30s12.5 27.8 27.8 27.8c10.6 0 20.1-5.9 24.9-15.4l.2-.3.4.1c.7.1 1.4.2 2 .2h55.1c6.8 0 12.3-5.5 12.3-12.3s-5.5-12.3-12.3-12.3H57.5c-.6 0-1.3.1-2 .2l-.4.1-.1-.5C50.3 8.1 40.7 2.2 30.1 2.2z"/><path d="M49.5 38c.4.1.8.1 1.2.1h48.9c4.5 0 8.1-3.7 8.1-8.1 0-4.5-3.7-8.1-8.1-8.1H50.7c-.4 0-.8.1-1.2.1-3.2-8.1-11.2-13.9-20.4-13.9-12.2 0-22 9.8-22 21.9S16.9 51.9 29 51.9c9.3 0 17.3-5.8 20.5-13.9zM121 99c-1.7 0-3-1.3-3-3V56.7c0-1.7 1.3-3 3-3s3 1.3 3 3V96c0 1.7-1.3 3-3 3zM97.3 99c-1.7 0-3-1.3-3-3V56.7c0-1.7 1.3-3 3-3s3 1.3 3 3V96c0 1.7-1.3 3-3 3zM73.7 99c-1.7 0-3-1.3-3-3V56.7c0-1.7 1.3-3 3-3s3 1.3 3 3V96c0 1.7-1.4 3-3 3zM50 99c-1.7 0-3-1.3-3-3V56.7c0-1.7 1.3-3 3-3s3 1.3 3 3V96c0 1.7-1.3 3-3 3zM109.2 88.8c-1.7 0-3-1.3-3-3V56.7c0-1.7 1.3-3 3-3s3 1.3 3 3v29.2c0 1.6-1.4 2.9-3 2.9zM85.5 88.8c-1.7 0-3-1.3-3-3V56.7c0-1.7 1.3-3 3-3s3 1.3 3 3v29.2c0 1.6-1.3 2.9-3 2.9zM61.7 89c-1.7 0-3-1.3-3-3V56.8c0-1.7 1.3-3 3-3s3 1.3 3 3V86c0 1.6-1.4 3-3 3z"/></svg>