<?xml version="1.0" encoding="utf-8"?>
<!-- Generator: Adobe Illustrator 21.0.0, SVG Export Plug-In . SVG Version: 6.00 Build 0)  -->
<svg version="1.1" id="图层_1" xmlns="http://www.w3.org/2000/svg" xmlns:xlink="http://www.w3.org/1999/xlink" x="0px" y="0px"
	 viewBox="180 120 212 392" style="enable-background:new 0 0 612 792;" xml:space="preserve">
<style type="text/css">
	.st0{fill:#CCCCCC;}
</style>
<g>
	<path class="st0" d="M379.6,378.4c-3.4,0-6.2,1.1-8.3,3.4c-2.4,2.4-3.6,5.2-3.6,8.5c0,3.3,1.2,6.1,3.6,8.5c2.3,2.3,5,3.4,8.3,3.4
		c3.2,0,6-1.1,8.5-3.4c2.4-2.4,3.6-5.2,3.6-8.5c0-3.3-1.2-6.1-3.6-8.5C385.9,379.6,383.1,378.4,379.6,378.4z"/>
	<path class="st0" d="M396.5,294.3H224.3c-33.2,0-60.4,27.2-60.4,60.4V527c0,33.2,27.2,60.4,60.4,60.4h172.3
		c33.2,0,60.4-27.2,60.4-60.4V354.7C456.9,321.5,429.7,294.3,396.5,294.3z M325.3,501.7c-9.3,7.5-20.5,11.2-33.7,11.2
		c-19.9,0-34.8-6.4-45-19.1c-8.7-10.8-13.1-25.4-13.1-43.9c0-18.2,4.5-32.9,13.6-44.1c10.1-12.8,24.9-19.2,44.3-19.2
		c14.3,0,26,3.7,35.1,11.1c8.9,7.2,14.2,16.9,16.2,29.3h-18c-2-8.3-6-14.4-11.7-18.2c-5.7-3.9-12.9-5.8-21.8-5.8
		c-13.2,0-23,4.5-29.6,13.5c-6.2,8.1-9.4,19.2-9.4,33.5c0,14.5,3.1,25.8,9.2,33.9c6.5,8.5,16.5,12.8,30.1,12.8
		c9,0,16.3-2.2,22.1-6.6c6.1-4.8,10.4-11.9,12.8-21.5h18C341.7,482.7,335.3,493.8,325.3,501.7z M395,405.5
		c-4.3,4.3-9.4,6.5-15.3,6.5c-6,0-11.1-2.2-15.2-6.5c-4.3-4-6.5-9-6.5-15.2s2.2-11.2,6.5-15.2c4-4.3,9-6.5,15.2-6.5
		c6,0,11.1,2.2,15.3,6.5c4.2,4.2,6.3,9.3,6.3,15.2C401.3,396.3,399.2,401.3,395,405.5z"/>
</g>
</svg>
